PathFileType	4	(X/Y/Z)	22_coords_data.trc
DataRate	CameraRate	NumFrames	NumMarkers	Units	OrigDataRate	OrigDataStartFrame	OrigNumFrames
30.0	30.0	9	21	m	30.0	10	59
Frame#	Time	THUMB_TIP	THUMB_IP	THUMB_MCP	THUMB_CMC	INDEX_TIP	INDEX_DIP	INDEX_PIP	INDEX_MCP	MIDDLE_TIP	MIDDLE_DIP	MIDDLE_PIP	MIDDLE_MCP	RING_TIP	RING_DIP	RING_PIP	RING_MCP	PINKY_TIP	PINKY_DIP	PINKY_PIP	PINKY_MCP	WRIST
X1	Y1	Z1	X2	Y2	Z2	X3	Y3	Z3	X4	Y4	Z4	X5	Y5	Z5	X6	Y6	Z6	X7	Y7	Z7	X8	Y8	Z8	X9	Y9	Z9	X10	Y10	Z10	X11	Y11	Z11	X12	Y12	Z12	X13	Y13	Z13	X14	Y14	Z14	X15	Y15	Z15	X16	Y16	Z16	X17	Y17	Z17	X18	Y18	Z18	X19	Y19	Z19	X20	Y20	Z20	X21	Y21	Z21
8	0.2999999999999987	0.5480202641080121	-0.027871169472632795	-0.11560128793280877	0.5277502939310852	-0.02117844690534121	-0.12410633194584941	0.4988138714110001	-0.014571447481021904	-0.1147334449655131	0.4746207918776372	-0.018727640189173167	-0.07748682142907576	0.5612397856501381	0.06533966803668967	-0.1573367074676461	0.5503643614356751	0.054760622371000656	-0.14744686717779618	0.5346872994757237	0.04370812194774898	-0.1311962734748612	0.5104110471220596	0.02686762409588539	-0.1005254844768162	0.5192262400964875	-0.019744178859403827	-0.10893520154867437	0.5341298369643154	-0.014208197858326277	-0.11760905390832277	0.5477416528265977	0.011392577305440521	-0.1146546791951919	0.5204450872845106	0.025480332263216443	-0.08221118075781317	0.5292861279310815	-0.022680266619137024	-0.10229328408638483	0.5450220894602019	-0.014522170954360147	-0.10558341932348275	0.5577420936523089	0.005423773310265667	-0.09780262375071366	0.5301585205873672	0.01546952581963612	-0.07000064203193138	0.5983467888048548	0.01959293585388966	-0.08968016645196816	0.5833827578156944	0.012416829864954182	-0.08548716282795249	0.564280856230482	0.0056341308822338565	-0.08001684571295217	0.5319750092307255	-0.003575891971941636	-0.06688706354972124	0.46228308100186094	-0.023011742144276925	-0.051989820119430985
9	0.33333333333333187	0.5480952997814871	-0.027798830003247788	-0.11561375294506285	0.5277914819912015	-0.021122536474379783	-0.12405070072582342	0.4988425593613912	-0.014512577477809652	-0.11471858839061655	0.4746744978580755	-0.018756787088418103	-0.07746564907097131	0.5614024698431614	0.06525606855954702	-0.15723435197118177	0.5505040972302165	0.054691445200467426	-0.1473543617044758	0.5347949987462202	0.04366291861690075	-0.1311184244289235	0.5104601119820199	0.026883121439902458	-0.10046083504436237	0.5193516330534297	-0.019826965563956245	-0.10890039654750164	0.5342506487320833	-0.014219384157662662	-0.11753604143245533	0.5478206171477833	0.011398850138881311	-0.11454078205732854	0.520471263368707	0.02549095889916908	-0.08214366429115766	0.529310378571991	-0.02240459551579932	-0.10198546689432322	0.5451374545438102	-0.014500644801562212	-0.10545407314023439	0.5578239235455433	0.005452885929135842	-0.09763805787367072	0.5301653874551475	0.015499303432745304	-0.06991089230126785	0.5984139235189355	0.01969656821685062	-0.08935201326739442	0.5834468258845871	0.012499378271713546	-0.0852063594833094	0.5643320399695606	0.005715200832251077	-0.07978308419133015	0.5319848645839099	-0.0035296089427693245	-0.06678011576894113	0.46228308100186083	-0.023011742144276925	-0.051989820119430985
10	0.3666666666666651	0.5481901345277272	-0.02769313067916568	-0.11551828757810625	0.5278877753128124	-0.021044173158335955	-0.12398029527101029	0.4989222233438397	-0.014475518473229365	-0.11467064572011057	0.4747213748268867	-0.018765386751625313	-0.07744423088852215	0.5615474576837193	0.06523914756353999	-0.15710021243881858	0.5506224903090654	0.05468943179395447	-0.1472336737831548	0.534885124996134	0.04367372756633736	-0.13101641672849212	0.5104831541675031	0.02692412020411794	-0.10039566286954657	0.5194674561398075	-0.019761695793059975	-0.10885044034777361	0.534401168232605	-0.01420351366001793	-0.11745804480577282	0.5478853415498024	0.011453541274343837	-0.11440810184779364	0.5204758059731069	0.025538255411437172	-0.0820586643233755	0.5294199188656408	-0.022318947497759645	-0.10178698288335797	0.5452326173567799	-0.014422393357863883	-0.10533705318463708	0.5578921537023781	0.005529007081877091	-0.09747208408059188	0.5301630096507204	0.01555169979766502	-0.06980692485662729	0.5984614989350501	0.019800330394548538	-0.08907672466965275	0.5834912415414423	0.012590753951505662	-0.08496413411368309	0.5643671854217847	0.00579920534000522	-0.07958292941679475	0.5319957791100642	-0.003483691442845438	-0.06666769299927411	0.4622830810018609	-0.023011742144276925	-0.051989820119430985
11	0.39999999999999825	0.5483362220274052	-0.027533415074398437	-0.1154667588938258	0.52800993195487	-0.020931572338291793	-0.12390818083416691	0.4990241981768262	-0.01444636174776004	-0.11460284467985066	0.4747542027889049	-0.01870271155950387	-0.07741762167190908	0.5616995893542415	0.06530079164735281	-0.1568778376779639	0.5507451670559462	0.05476396758554791	-0.14703019984947005	0.5349637223166622	0.0437573903654318	-0.13084962220716864	0.510466486730387	0.027050377204384746	-0.10028171004642175	0.5195753513663427	-0.019632390404451416	-0.10874566869759844	0.534523136849254	-0.014096444879021286	-0.1173431692818575	0.547922329313899	0.011595419662361106	-0.11421278788613759	0.5204337261234798	0.025670332412601304	-0.08192623578293512	0.5295234388461951	-0.022149204036985948	-0.10162401927708242	0.5453236264927246	-0.014231075242922886	-0.10518173016121651	0.5579379655960502	0.0057269195968681075	-0.09726106920639793	0.5301106583012251	0.01570298563018746	-0.06967774255390316	0.5984771725542988	0.019992149057427633	-0.08880997723777045	0.5835043655500779	0.01277480026480593	-0.08472036517548429	0.5643761639064372	0.005972594716848301	-0.07936742947966682	0.5319877351355774	-0.003345092361494939	-0.06652010134246189	0.4622830810018609	-0.023011742144276925	-0.051989820119430985
12	0.43333333333333146	0.5484713658187839	-0.027437372945777083	-0.11540224747151448	0.5281281755155021	-0.020878396061531523	-0.12383637045593901	0.49913203506338333	-0.014429161242157096	-0.11453845622071554	0.4748015016394749	-0.01871046808128185	-0.07739568363899599	0.5619336385077811	0.06530793494971332	-0.15662928362736248	0.5509272672257226	0.054793079082291474	-0.14681614970955506	0.5350898909873908	0.04380805857385073	-0.1306756208670835	0.5104965871415579	0.027129655449061874	-0.10016928760407756	0.5197188882326944	-0.019603298900104926	-0.10863022558731544	0.5346585345359066	-0.013998458601369279	-0.11719718149712297	0.5480149337909186	0.011707828139623566	-0.11400297252922856	0.5204288874220147	0.025759837786189177	-0.081789636911421	0.5296279726220341	-0.02202564347622482	-0.10142317091700537	0.5454354230835902	-0.014126648091204674	-0.10499113697806656	0.5580106728899442	0.005840527886959657	-0.0970315544032822	0.530099774742659	0.015791939292225998	-0.0695238825705913	0.5985225214656533	0.02009661929979667	-0.088520239716563	0.5835447711348907	0.012877387216817304	-0.08445210953656382	0.564413857220111	0.006055558703548569	-0.07913395125377096	0.5320045938085327	-0.003283628347951706	-0.06635495750089548	0.4622830810018609	-0.023011742144276925	-0.051989820119430985
13	0.4666666666666647	0.5486470921371547	-0.027360095190342215	-0.1153366786497107	0.5282659622184823	-0.020875629903488013	-0.12373675324353323	0.4992646338960225	-0.014417535298472894	-0.11446119559961943	0.47486234086553725	-0.01873420028763051	-0.07736962650062185	0.562202867654687	0.06528232316489979	-0.1563757914125305	0.5511516887369037	0.05478391850479969	-0.14659545685179443	0.5352637712822036	0.0438253237958216	-0.13048666689236554	0.5105574363710087	0.027184253635635036	-0.10005136020457905	0.5199014576048762	-0.019490795740972566	-0.10848383759366623	0.5348547699878228	-0.013929537646273693	-0.11705535188124455	0.5481454286456536	0.011799805196478275	-0.1137737578598643	0.5204511384217037	0.025823751039500853	-0.08164117077162003	0.5297842195043121	-0.02188150549373369	-0.10123219568520445	0.5456258063011425	-0.0140467938287685	-0.10479048472424418	0.5581248663280538	0.0059386872282450875	-0.09675717753707536	0.5301070408602077	0.01585869005221119	-0.06934703645706947	0.5985983586128217	0.020159643908938873	-0.08816218410012389	0.583607799090808	0.012948373897407883	-0.08412724791255494	0.564470100426866	0.0061095953256269375	-0.07885547245315769	0.5320295666816522	-0.0032265711520096385	-0.06615384984706876	0.46228308100186083	-0.023011742144276925	-0.051989820119430985
14	0.4999999999999978	0.5488219142024345	-0.027295747816657112	-0.11519590865194569	0.5284181172546154	-0.020863250334907102	-0.12358089799358758	0.4993913698127357	-0.014403986290951298	-0.11438601675695441	0.47491101014134285	-0.01877508565206565	-0.0773523093981912	0.5624413541005231	0.06528856155924123	-0.1561208422041937	0.5513512565195153	0.05480476340804652	-0.14636893408481866	0.5354032969040073	0.04386969437701349	-0.1303035463712069	0.5105861527164731	0.027263739532404796	-0.09993929581114928	0.5200241281225644	-0.01936977734348877	-0.1083704304738329	0.5350036141252587	-0.01381981749088157	-0.11690348061604662	0.5482620875818199	0.01191662639328761	-0.1135482030122297	0.5204522131118724	0.02590727930307901	-0.08150104347938646	0.529941399323894	-0.021769299019569366	-0.10103154462791401	0.5457849844092106	-0.013926040184923605	-0.10456199821025818	0.5582414413248403	0.006061607519575851	-0.09646813637860577	0.5301098649575905	0.01593732703417783	-0.06915869828181397	0.5986759347546733	0.02025882293979342	-0.08775329135303817	0.5836738685389773	0.013047842234257478	-0.08376082763695229	0.5645307414336174	0.0061640501581320395	-0.07856793727794165	0.5320570260873355	-0.0031876503852211746	-0.06596290020714678	0.46228308100186094	-0.023011742144276925	-0.051989820119430985
15	0.533333333333331	0.5489825805801799	-0.027312512867952443	-0.1150833556554233	0.5285531090890605	-0.02092529499931628	-0.12344039714701102	0.4995162798886958	-0.014417393680706492	-0.114311883006359	0.47494515923791947	-0.018805559596112076	-0.07734035301551515	0.5626558761660038	0.06526277730494134	-0.1559119169418366	0.5515365151398082	0.05478923222590826	-0.1461823401860583	0.535540706378103	0.04387078963780355	-0.13015325579208176	0.5106455347214526	0.027315044968519775	-0.09982548237180919	0.5201756127997201	-0.019380284938875558	-0.10823104741535658	0.5351287980456194	-0.013761238525247799	-0.11676501298848349	0.5483612322205439	0.011980611486654413	-0.11334896354928783	0.5204780117661019	0.02596082764363239	-0.08136103622829438	0.5301176402981753	-0.021865458361999934	-0.10097556051827361	0.5459169517316069	-0.013861383856677678	-0.10433956847645198	0.5583520984621431	0.006127753454452156	-0.0962166690958838	0.5301316819528308	0.01597401774154572	-0.06898837488508819	0.5987521828241887	0.020337255617802308	-0.08737097793936166	0.5837378854396127	0.013125132906209536	-0.08342684811892745	0.5645906882518983	0.0062043921623909926	-0.07829847543242782	0.5320968093577614	-0.0032064660151398527	-0.06578979709394761	0.4622830810018609	-0.023011742144276925	-0.051989820119430985
16	0.5666666666666642	0.5491794233555884	-0.027284786639244718	-0.11493247940291675	0.5287324225456197	-0.020970948625579355	-0.12330240218716816	0.49968958479878034	-0.01444285992746741	-0.114207478682248	0.47499880869776645	-0.018789965121554286	-0.07731089005997636	0.5628244770224581	0.06526409135905575	-0.15571958067703512	0.5516939910301948	0.05478188451552579	-0.14601207732831134	0.535671876268369	0.04386109801862359	-0.13001088693984447	0.5106879577155925	0.02737728157988384	-0.09971693204184269	0.5201956572170423	-0.019266284185113003	-0.10807549397272888	0.5351616289327319	-0.01370762505736145	-0.11662657573509348	0.5483946452354266	0.012029843534329787	-0.11317990487405652	0.520499532376863	0.026025969836937946	-0.08120930825576615	0.5302233542586068	-0.02194767656838581	-0.10093611794254313	0.5459750094931087	-0.013798403071010767	-0.10417258188307628	0.5584124276041821	0.006173504502825722	-0.09601087142555079	0.530131951593208	0.016033600186159402	-0.06884997998752485	0.5987959083600336	0.020473943093215707	-0.08704973773426697	0.5837776877094673	0.013245777503373746	-0.08315016459138033	0.564627142061998	0.006278494224057463	-0.07809787955290926	0.5321073493719904	-0.003172335242249469	-0.06568706343156906	0.4622830810018609	-0.023011742144276925	-0.051989820119430985
